<svg xmlns="http://www.w3.org/2000/svg" viewBox="0 0 596.63 366.94"><defs><style>.cls-1{fill:none;}.cls-2{fill:#00acff;}.cls-3{fill:#fd5;}.cls-4{fill:#fff;}.cls-5{font-size:25px;font-family:ArialMT, Arial;}</style></defs><title>cat_chart</title><g id="Layer_2" data-name="Layer 2"><path class="cls-1" d="M682.52,282.41q0,39.36,0,78.71a16,16,0,0,0,.33,3.6,4.76,4.76,0,0,0,9.16-.1,10.8,10.8,0,0,0,.29-2.6q0-61.84,0-123.71l-9.79.1Z" transform="translate(-398.6 -35.12)"/><path class="cls-1" d="M721.79,204.13a19.57,19.57,0,0,0-.38-4,4.51,4.51,0,0,0-4.2-3.51,4.38,4.38,0,0,0-4.57,2.62A10.44,10.44,0,0,0,712,203q0,17.53,0,35.09l9.88-.1Q721.8,221.08,721.79,204.13Z" transform="translate(-398.6 -35.12)"/><path class="cls-1" d="M741.36,362.18c0,.42,0,.84,0,1.25a5,5,0,0,0,6,4.58c2.26-.53,3.74-2.72,3.74-5.54V237.73l-9.79.1Q741.35,300,741.36,362.18Z" transform="translate(-398.6 -35.12)"/><path class="cls-1" d="M711.92,282.13q0,39.56,0,79.11a20.94,20.94,0,0,0,.16,2.62,4.8,4.8,0,0,0,9.51.1,19.31,19.31,0,0,0,.19-2.74q0-51.83,0-103.64V238l-9.88.1Z" transform="translate(-398.6 -35.12)"/><path class="cls-1" d="M692.05,200.37a4.64,4.64,0,0,0-4.2-3.7,4.47,4.47,0,0,0-4.73,2.76,9.54,9.54,0,0,0-.58,3.4q0,17.79,0,35.58l9.79-.1q0-17.59,0-35.21A13.16,13.16,0,0,0,692.05,200.37Z" transform="translate(-398.6 -35.12)"/><path class="cls-1" d="M750.93,200.45a4.6,4.6,0,0,0-4.26-3.77,4.51,4.51,0,0,0-4.76,2.92,9.62,9.62,0,0,0-.53,3.29v34.94l9.79-.1q0-17.08,0-34.18A16,16,0,0,0,750.93,200.45Z" transform="translate(-398.6 -35.12)"/><path class="cls-2" d="M682.54,202.83a9.54,9.54,0,0,1,.58-3.4,4.47,4.47,0,0,1,4.73-2.76,4.64,4.64,0,0,1,4.2,3.7,13.16,13.16,0,0,1,.26,2.73q0,17.61,0,35.21l19.61-.19q0-17.55,0-35.09a10.44,10.44,0,0,1,.69-3.76,4.38,4.38,0,0,1,4.57-2.62,4.51,4.51,0,0,1,4.2,3.51,19.57,19.57,0,0,1,.38,4q0,17,0,33.89l19.58-.19V202.89a9.62,9.62,0,0,1,.53-3.29,4.51,4.51,0,0,1,4.76-2.92,4.6,4.6,0,0,1,4.26,3.77,16,16,0,0,1,.23,3.1q0,17.1,0,34.18l29-.28,2.07-23.09,2.13-23.93c.25-2.81.49-5.62.74-8.54H648.67c0,.46,0,.86.06,1.27q1.26,14,2.5,28,1.21,13.76,2.43,27.51l28.86-.29Q682.52,220.62,682.54,202.83Z" transform="translate(-398.6 -35.12)"/><path class="cls-3" d="M751.17,237.73V362.47c0,2.82-1.48,5-3.74,5.54a5,5,0,0,1-6-4.58c0-.41,0-.83,0-1.25q0-62.18,0-124.35L721.8,238v19.56q0,51.82,0,103.64a19.31,19.31,0,0,1-.19,2.74,4.8,4.8,0,0,1-9.51-.1,20.94,20.94,0,0,1-.16-2.62q0-39.56,0-79.11v-44l-19.61.19q0,61.86,0,123.71a10.8,10.8,0,0,1-.29,2.6,4.76,4.76,0,0,1-9.16.1,16,16,0,0,1-.33-3.6q0-39.35,0-78.71v-44l-28.86.29c.06.67.11,1.35.17,2q1.57,17.51,3.15,35c1,10.76,1.89,21.52,2.85,32.27q1.56,17.5,3.16,35,1.62,18.08,3.23,36.14c.24,2.58,1.68,3.85,4.29,3.85h91.36c.55,0,1.09,0,1.63,0,2.39-.11,3.7-1.29,3.94-3.68.45-4.44.83-8.88,1.22-13.33q1.07-11.83,2.11-23.67l2.4-26.79q1.05-11.84,2.09-23.68,1.22-13.51,2.42-27l2.1-23.55c.11-1.27.23-2.55.34-3.82Z" transform="translate(-398.6 -35.12)"/></g><g id="Layer_1" data-name="Layer 1"><path class="cls-3" d="M513.32,147.81h-6.64v2.94q0,111.5,0,223A26.57,26.57,0,0,1,506,380a17.17,17.17,0,0,1-33.54-1.64,27,27,0,0,1-.28-4.22q0-64.08,0-128.16V243.4h-7v2.51q0,64.28,0,128.55a22.4,22.4,0,0,1-.66,5.71,16.92,16.92,0,0,1-17.42,12.6A17.12,17.12,0,0,1,431,378.39a28.28,28.28,0,0,1-.19-4.42q-.12-111.68-.22-223.36v-2.79h-6.49c0,.87,0,1.68,0,2.49q0,39,0,78.05a19.06,19.06,0,0,1-.34,4.21,12.7,12.7,0,0,1-14,9.75c-6.05-.58-10.83-5.89-11.12-12.35,0-.45,0-.9,0-1.35q0-44.51,0-89c0-11.11,3.89-20.6,12-28.21a35.91,35.91,0,0,1,24.94-10.1q33.15-.19,66.3,0a37.52,37.52,0,0,1,36.49,32,39.63,39.63,0,0,1,.42,6q0,44.81,0,89.61a13.61,13.61,0,0,1-2.95,9,12.62,12.62,0,0,1-13.75,4,12.77,12.77,0,0,1-8.77-11.53c0-.84,0-1.67,0-2.51V147.81Z" transform="translate(-398.6 -35.12)"/><path class="cls-3" d="M468.69,93.69A29.29,29.29,0,1,1,498,64.62,29.28,29.28,0,0,1,468.69,93.69Z" transform="translate(-398.6 -35.12)"/><path class="cls-2" d="M921.34,237.83c2.79,4.77,5.56,9.56,8.39,14.31a7,7,0,0,0,2,2.38c7.63,4.93,10.68,11.86,9.58,20.84-.13,1.06.76,2.48,1.57,3.38,2.43,2.69,5.26,5,7.56,7.83,8.27,10,16.16,20.37,24.62,30.24,9.61,11.21,12.12,24.24,11.38,38.43a12.06,12.06,0,0,0,1.53,6c3.07,5.62,7,10.79,7.25,17.63.45,15.16-13.48,26.43-28.09,22.29-8.52-2.41-16.82-5.57-25.22-8.37-2.3-.77-3.61-2.29-2.8-4.67s2.57-3,5-2.27c8,2.29,16.15,4.39,24.19,6.74,5.88,1.71,10.25-.45,13.71-5s2.87-9.3.38-14.05c-.34-.63-.8-1.2-1.41-2.1-3.68,4.69-8,8.3-13.76,9.59a42.26,42.26,0,0,1-8.27,1.17c-8.89.14-17.78.16-26.66,0-1.74,0-4.5-.82-4.94-2a7.29,7.29,0,0,1,.79-6c1.7-2.33,4.38-4,6.85-6.05l-3.8-11.92c-2.43,7.63-4.85,14.81-7,22.07-.85,2.9-2.14,4.28-5.36,4-3.75-.29-7.55.08-11.31-.12-4.69-.24-6.58-3.44-3.75-7.13a19.87,19.87,0,0,1,8-5.67,5.48,5.48,0,0,0,3.67-3.78c3-8.89,2.85-18.17,3.74-27.34.69-7.08.13-13.14-4.7-19.13s-4.21-13.55-3.13-20.74c1.23-8.17-.22-10.32-7.76-14.09-3.23-1.62-5.73-5-8.09-8-1.55-2-.28-3.54,1.79-5,2.77-1.94,5.1-4.54,7.6-6.87,2.09-1.94,3.88-4.45,6.31-5.72,3.48-1.81,5.2-4,5.64-8,.49-4.4,2-8.68,3-13Z" transform="translate(-398.6 -35.12)"/><path d="M668,392.8a34.3,34.3,0,0,1-5.78-2.5c-4.07-2.67-5.62-6.74-6-11.51-.87-11.05-1.94-22.09-2.92-33.14-1-10.76-1.89-21.52-2.85-32.28s-2-21.51-2.91-32.26-1.89-21.52-2.85-32.28-1.94-21.51-2.9-32.27q-1.19-13.34-2.35-26.66c-.24-2.66-.49-5.32-.75-8.1-1.1,0-2.18,0-3.25,0a18.11,18.11,0,0,1-3.22-.31,4.75,4.75,0,0,1,0-9.23,13.63,13.63,0,0,1,2.85-.27H682.5c0-.59,0-1.07,0-1.56.09-3.62-.09-7.28.33-10.86.76-6.48,7.18-12,13.7-12.06q20.1-.08,40.18,0a14.61,14.61,0,0,1,14.4,14c.12,3,0,6,.07,9V172h1.72q22.85,0,45.68,0a11,11,0,0,1,3.43.49,4.44,4.44,0,0,1,3,4.69,4.49,4.49,0,0,1-3.53,4.3,20.78,20.78,0,0,1-3.35.33c-1,.05-2,0-3.15,0-.16,1.66-.34,3.3-.49,4.94q-2,22.36-4,44.73-1.82,20.38-3.61,40.75-2.05,23.12-4.15,46.23-1.82,20.31-3.6,40.62c-.63,7.14-1.26,14.29-2,21.42a13.4,13.4,0,0,1-10.85,12,5.35,5.35,0,0,0-.67.24Zm117-210.91H648.67c0,.46,0,.86.06,1.27q1.26,14,2.5,28,1.31,14.77,2.6,29.54,1.57,17.51,3.15,35c1,10.76,1.89,21.52,2.85,32.27q1.56,17.5,3.16,35,1.62,18.08,3.23,36.14c.24,2.58,1.68,3.85,4.29,3.85h91.36c.55,0,1.09,0,1.63,0,2.39-.11,3.7-1.29,3.94-3.68.45-4.44.83-8.88,1.22-13.33q1.07-11.83,2.11-23.67l2.4-26.79q1.05-11.84,2.09-23.68,1.22-13.51,2.42-27l2.1-23.55q1.2-13.46,2.41-26.91l2.13-23.93C784.57,187.62,784.81,184.81,785.06,181.89Zm-43.72-10c0-3.17,0-6.21,0-9.25,0-3.44-2.05-5.41-5.48-5.41q-18.45,0-36.9,0a17.26,17.26,0,0,0-2.49.16,4.42,4.42,0,0,0-4,3.88c-.19,3.52-.05,7-.05,10.63Z" transform="translate(-398.6 -35.12)"/><path class="cls-4" d="M741.34,171.93H692.41c0-3.58-.14-7.11.05-10.63a4.42,4.42,0,0,1,4-3.88,17.26,17.26,0,0,1,2.49-.16q18.45,0,36.9,0c3.43,0,5.44,2,5.48,5.41C741.37,165.72,741.34,168.76,741.34,171.93Z" transform="translate(-398.6 -35.12)"/><path d="M711.92,282.13q0-39.56,0-79.1a10.44,10.44,0,0,1,.69-3.76,4.38,4.38,0,0,1,4.57-2.62,4.51,4.51,0,0,1,4.2,3.51,19.57,19.57,0,0,1,.38,4q0,26.73,0,53.45,0,51.82,0,103.64a19.31,19.31,0,0,1-.19,2.74,4.8,4.8,0,0,1-9.51-.1,20.94,20.94,0,0,1-.16-2.62Q711.92,321.69,711.92,282.13Z" transform="translate(-398.6 -35.12)"/><path d="M751.17,282.51v80c0,2.82-1.48,5-3.74,5.54a5,5,0,0,1-6-4.58c0-.41,0-.83,0-1.25q0-79.65,0-159.29a9.62,9.62,0,0,1,.53-3.29,4.51,4.51,0,0,1,4.76-2.92,4.6,4.6,0,0,1,4.26,3.77,16,16,0,0,1,.23,3.1Q751.18,243,751.17,282.51Z" transform="translate(-398.6 -35.12)"/><path d="M682.52,282.41q0-39.8,0-79.58a9.54,9.54,0,0,1,.58-3.4,4.47,4.47,0,0,1,4.73-2.76,4.64,4.64,0,0,1,4.2,3.7,13.16,13.16,0,0,1,.26,2.73q0,79.46,0,158.92a10.8,10.8,0,0,1-.29,2.6,4.76,4.76,0,0,1-9.16.1,16,16,0,0,1-.33-3.6Q682.5,321.77,682.52,282.41Z" transform="translate(-398.6 -35.12)"/><text class="cls-5" transform="translate(36.6 132.37)">71.2%</text><text class="cls-5" transform="translate(519.95 313.73)">28.8%</text></g></svg>