<svg xmlns="http://www.w3.org/2000/svg" viewBox="0 0 1253.15 414"><title>dots</title><g id="Layer_1" data-name="Layer 1"><g id="Layer_1-2" data-name="Layer 1"><circle cx="663.5" cy="207" r="207" style="fill:#fc6"/></g><g id="Layer_2" data-name="Layer 2"><circle cx="1098" cy="207.5" r="3" style="fill:#0c0"/></g><g id="Layer_3" data-name="Layer 3"><circle cx="90" cy="207.5" r="90" style="fill:#47a5dc"/></g><g id="Layer_4" data-name="Layer 4"><circle cx="259" cy="207.5" r="24" style="fill:#ed2024"/></g><g id="Layer_5" data-name="Layer 5"><circle cx="385" cy="207.5" r="36" style="fill:#f63"/></g><g id="Layer_6" data-name="Layer 6"><circle cx="960" cy="209.5" r="60" style="fill:#f39"/></g><g id="Layer_7" data-name="Layer 7"><circle cx="1200" cy="207.5" r="42" style="fill:#820080"/></g></g><g id="Layer_2-2" data-name="Layer 2"><path d="M637.8,196.88h-5.74V194.8h14v2.08h-5.77v16.8H637.8Z"/><path d="M646.79,204.35c0-1.59,0-3-.11-4.23h2.15l.09,2.66H649a4.06,4.06,0,0,1,3.75-3,2.5,2.5,0,0,1,.7.08v2.32a4.06,4.06,0,0,0-.84-.08,3.46,3.46,0,0,0-3.3,3.16,6.6,6.6,0,0,0-.11,1.15v7.23h-2.44Z"/><path d="M663.31,213.68l-.2-1.71H663a5.06,5.06,0,0,1-4.14,2,3.86,3.86,0,0,1-4.15-3.89c0-3.27,2.91-5.07,8.15-5v-.28a2.79,2.79,0,0,0-3.08-3.13,6.8,6.8,0,0,0-3.53,1l-.56-1.62a8.41,8.41,0,0,1,4.45-1.2c4.15,0,5.16,2.82,5.16,5.54v5.07a19,19,0,0,0,.22,3.25Zm-.36-6.92c-2.69-.06-5.74.42-5.74,3.05a2.17,2.17,0,0,0,2.32,2.35,3.39,3.39,0,0,0,3.28-2.26,2.8,2.8,0,0,0,.14-.79Z"/><path d="M669,211.16a6.47,6.47,0,0,0,3.24,1c1.8,0,2.64-.9,2.64-2s-.7-1.82-2.52-2.49c-2.44-.87-3.59-2.21-3.59-3.84,0-2.18,1.77-4,4.68-4a6.75,6.75,0,0,1,3.33.84l-.62,1.79a5.22,5.22,0,0,0-2.77-.79c-1.45,0-2.27.84-2.27,1.85s.82,1.63,2.58,2.3c2.35.89,3.56,2.07,3.56,4.09,0,2.38-1.85,4.06-5.07,4.06a7.71,7.71,0,0,1-3.81-.93Z"/><path d="M680.39,193.8h2.46v8.45h.06a4.57,4.57,0,0,1,1.76-1.73,5.09,5.09,0,0,1,2.52-.7c1.82,0,4.74,1.12,4.74,5.79v8.07h-2.47v-7.79c0-2.18-.81-4-3.13-4a3.55,3.55,0,0,0-3.31,2.46,3,3,0,0,0-.17,1.18v8.18h-2.46Z"/><path d="M1162.88,213.06a12,12,0,0,1-5,.9c-5.32,0-9.33-3.36-9.33-9.55,0-5.91,4-9.91,9.86-9.91a10,10,0,0,1,4.48.84l-.59,2a9,9,0,0,0-3.81-.78c-4.42,0-7.36,2.83-7.36,7.78,0,4.63,2.66,7.59,7.25,7.59a9.69,9.69,0,0,0,4-.78Z"/><path d="M1177.81,206.79c0,5-3.48,7.2-6.75,7.2-3.67,0-6.5-2.69-6.5-7,0-4.53,3-7.19,6.72-7.19S1177.81,202.65,1177.81,206.79Zm-10.76.14c0,3,1.71,5.21,4.12,5.21s4.12-2.22,4.12-5.27c0-2.29-1.15-5.2-4.06-5.2S1167.05,204.35,1167.05,206.93Z"/><path d="M1180.91,203.79c0-1.4,0-2.55-.11-3.66H1183l.11,2.18h.08a4.68,4.68,0,0,1,4.26-2.49,4,4,0,0,1,3.84,2.71h0a5.63,5.63,0,0,1,1.51-1.76,4.62,4.62,0,0,1,3-1c1.79,0,4.45,1.17,4.45,5.88v8h-2.41V206c0-2.6-.95-4.17-2.94-4.17a3.19,3.19,0,0,0-2.91,2.24,4.18,4.18,0,0,0-.19,1.23v8.38h-2.41v-8.12c0-2.16-1-3.73-2.83-3.73a3.7,3.7,0,0,0-3.25,3.67v8.18h-2.41Z"/><path d="M1204.27,204.55c0-1.74-.06-3.14-.12-4.42h2.22l.11,2.32h0a5.34,5.34,0,0,1,4.82-2.63c3.28,0,5.74,2.77,5.74,6.88,0,4.88-3,7.29-6.16,7.29a4.76,4.76,0,0,1-4.17-2.13h-.06v7.36h-2.43Zm2.43,3.61a6.12,6.12,0,0,0,.11,1,3.81,3.81,0,0,0,3.7,2.88c2.6,0,4.12-2.13,4.12-5.23,0-2.72-1.43-5-4-5a3.93,3.93,0,0,0-3.72,3.05,4.18,4.18,0,0,0-.17,1Z"/><path d="M1232.46,206.79c0,5-3.47,7.2-6.75,7.2-3.66,0-6.49-2.69-6.49-7,0-4.53,3-7.19,6.72-7.19S1232.46,202.65,1232.46,206.79Zm-10.75.14c0,3,1.71,5.21,4.12,5.21s4.11-2.22,4.11-5.27c0-2.29-1.15-5.2-4.06-5.2S1221.71,204.35,1221.71,206.93Z"/><path d="M1235.23,211.16a6.54,6.54,0,0,0,3.25,1c1.79,0,2.63-.9,2.63-2s-.7-1.82-2.52-2.49c-2.43-.87-3.58-2.21-3.58-3.84,0-2.18,1.76-4,4.68-4a6.75,6.75,0,0,1,3.33.84l-.62,1.79a5.23,5.23,0,0,0-2.77-.78c-1.46,0-2.27.83-2.27,1.84s.81,1.63,2.58,2.3c2.35.89,3.55,2.07,3.55,4.09,0,2.38-1.84,4.06-5.06,4.06a7.71,7.71,0,0,1-3.81-.93Z"/><path d="M1249.63,196.23v3.9h3.52V202h-3.52v7.31c0,1.68.47,2.63,1.84,2.63a5.21,5.21,0,0,0,1.43-.17l.11,1.85a5.89,5.89,0,0,1-2.18.34,3.42,3.42,0,0,1-2.66-1,5,5,0,0,1-1-3.53V202h-2.1v-1.87h2.1v-3.25Z"/><path d="M1075.74,211.54a17.55,17.55,0,0,1-5.79,1,8.87,8.87,0,0,1-9.69-9.52c0-5.63,3.89-9.75,10.22-9.75a11.68,11.68,0,0,1,4.7.87l-.58,2a9.78,9.78,0,0,0-4.18-.81c-4.59,0-7.58,2.85-7.58,7.58s2.88,7.62,7.28,7.62a7.94,7.94,0,0,0,3.24-.5v-5.63h-3.83v-2h6.21Z"/><path d="M1079.38,192.5h2.47v19.88h-2.47Z"/><path d="M1093.5,212.38l-.2-1.71h-.08a5.05,5.05,0,0,1-4.15,2,3.86,3.86,0,0,1-4.14-3.89c0-3.28,2.91-5.07,8.15-5v-.28a2.8,2.8,0,0,0-3.08-3.14,6.72,6.72,0,0,0-3.53,1l-.56-1.63a8.47,8.47,0,0,1,4.45-1.2c4.14,0,5.15,2.83,5.15,5.54v5.07a18.8,18.8,0,0,0,.23,3.25Zm-.37-6.92c-2.69-.05-5.74.42-5.74,3.06a2.19,2.19,0,0,0,2.33,2.35,3.36,3.36,0,0,0,3.27-2.27,2.38,2.38,0,0,0,.14-.78Z"/><path d="M1099.15,209.86a6.44,6.44,0,0,0,3.25,1c1.79,0,2.63-.9,2.63-2s-.7-1.82-2.52-2.49c-2.43-.87-3.58-2.21-3.58-3.83,0-2.19,1.76-4,4.67-4a6.76,6.76,0,0,1,3.34.84l-.62,1.79a5.32,5.32,0,0,0-2.77-.78c-1.46,0-2.27.84-2.27,1.85s.81,1.62,2.58,2.29c2.35.9,3.55,2.07,3.55,4.09,0,2.38-1.85,4.06-5.07,4.06a7.7,7.7,0,0,1-3.8-.92Z"/><path d="M1110.24,209.86a6.41,6.41,0,0,0,3.25,1c1.79,0,2.63-.9,2.63-2s-.7-1.82-2.52-2.49c-2.44-.87-3.58-2.21-3.58-3.83,0-2.19,1.76-4,4.67-4a6.72,6.72,0,0,1,3.33.84l-.61,1.79a5.33,5.33,0,0,0-2.78-.78c-1.45,0-2.26.84-2.26,1.85s.81,1.62,2.57,2.29c2.35.9,3.56,2.07,3.56,4.09,0,2.38-1.85,4.06-5.07,4.06a7.77,7.77,0,0,1-3.81-.92Z"/><path d="M904.18,207.74l-2,5.94H899.7l6.41-18.88h2.94l6.44,18.88h-2.6l-2-5.94Zm6.19-1.9-1.85-5.44c-.42-1.23-.7-2.35-1-3.44h-.06c-.28,1.12-.58,2.27-1,3.42l-1.85,5.46Z"/><path d="M918.1,193.8h2.46v19.88H918.1Z"/><path d="M936,210c0,1.4,0,2.63.12,3.7H934l-.14-2.22h-.05A5.09,5.09,0,0,1,929.3,214c-2.13,0-4.68-1.18-4.68-5.94v-7.92h2.46v7.5c0,2.58.79,4.31,3,4.31a3.45,3.45,0,0,0,3.47-3.5v-8.31H936Z"/><path d="M940.13,203.79c0-1.4,0-2.55-.11-3.66h2.16l.11,2.18h.08a4.68,4.68,0,0,1,4.26-2.49,4,4,0,0,1,3.83,2.71h.06a5.63,5.63,0,0,1,1.51-1.76,4.61,4.61,0,0,1,3-1c1.79,0,4.45,1.17,4.45,5.88v8h-2.41V206c0-2.6-1-4.17-2.94-4.17a3.19,3.19,0,0,0-2.91,2.24,4.17,4.17,0,0,0-.2,1.23v8.38h-2.4v-8.12c0-2.16-1-3.73-2.83-3.73a3.7,3.7,0,0,0-3.25,3.67v8.18h-2.41Z"/><path d="M966.23,196.32a1.53,1.53,0,0,1-3.05,0,1.5,1.5,0,0,1,1.54-1.54A1.46,1.46,0,0,1,966.23,196.32Zm-2.75,17.36V200.13H966v13.55Z"/><path d="M970,203.79c0-1.4,0-2.55-.12-3.66h2.19l.14,2.23h0a5,5,0,0,1,4.48-2.54c1.88,0,4.79,1.12,4.79,5.76v8.1h-2.46v-7.82c0-2.18-.82-4-3.14-4a3.5,3.5,0,0,0-3.3,2.52,3.62,3.62,0,0,0-.17,1.15v8.15H970Z"/><path d="M996.92,210c0,1.4,0,2.63.11,3.7h-2.19l-.14-2.22h-.05a5.09,5.09,0,0,1-4.48,2.53c-2.13,0-4.68-1.18-4.68-5.94v-7.92H988v7.5c0,2.58.78,4.31,3,4.31a3.45,3.45,0,0,0,3.47-3.5v-8.31h2.47Z"/><path d="M1001,203.79c0-1.4,0-2.55-.11-3.66h2.16l.11,2.18h.08a4.68,4.68,0,0,1,4.26-2.49,4,4,0,0,1,3.84,2.71h0a5.63,5.63,0,0,1,1.51-1.76,4.61,4.61,0,0,1,3-1c1.79,0,4.45,1.17,4.45,5.88v8h-2.41V206c0-2.6-1-4.17-2.94-4.17a3.19,3.19,0,0,0-2.91,2.24,4.17,4.17,0,0,0-.2,1.23v8.38h-2.4v-8.12c0-2.16-1-3.73-2.83-3.73a3.7,3.7,0,0,0-3.25,3.67v8.18H1001Z"/><path d="M354.23,195a27.8,27.8,0,0,1,4.68-.37,7.73,7.73,0,0,1,5.29,1.57,5.07,5.07,0,0,1,1.65,4,5.55,5.55,0,0,1-1.45,4,7.83,7.83,0,0,1-5.77,2.07,8.4,8.4,0,0,1-2-.16v7.56h-2.44Zm2.44,9.1a8.15,8.15,0,0,0,2,.19c2.94,0,4.74-1.42,4.74-4s-1.77-3.69-4.46-3.69a10.41,10.41,0,0,0-2.29.19Z"/><path d="M375.82,213.68l-.2-1.71h-.08a5.06,5.06,0,0,1-4.14,2,3.86,3.86,0,0,1-4.15-3.89c0-3.27,2.91-5.07,8.15-5v-.28a2.79,2.79,0,0,0-3.08-3.13,6.8,6.8,0,0,0-3.53,1l-.56-1.62a8.41,8.41,0,0,1,4.45-1.2c4.15,0,5.16,2.82,5.16,5.54v5.07a19,19,0,0,0,.22,3.25Zm-.36-6.92c-2.69-.06-5.74.42-5.74,3.05a2.17,2.17,0,0,0,2.32,2.35,3.39,3.39,0,0,0,3.28-2.26,2.8,2.8,0,0,0,.14-.79Z"/><path d="M381.81,204.55c0-1.74-.05-3.14-.11-4.43h2.21l.11,2.33h.06a5.33,5.33,0,0,1,4.82-2.63c3.27,0,5.74,2.77,5.74,6.88,0,4.88-3,7.28-6.16,7.28a4.77,4.77,0,0,1-4.18-2.12h-.05v7.36h-2.44Zm2.44,3.61a5.3,5.3,0,0,0,.11,1,3.8,3.8,0,0,0,3.7,2.88c2.6,0,4.11-2.13,4.11-5.23,0-2.72-1.43-5-4-5a3.92,3.92,0,0,0-3.72,3.05,3.75,3.75,0,0,0-.17,1Z"/><path d="M399.12,207.35c.05,3.33,2.18,4.7,4.64,4.7a9,9,0,0,0,3.76-.7l.42,1.77a11.05,11.05,0,0,1-4.51.84c-4.17,0-6.67-2.75-6.67-6.84s2.41-7.3,6.36-7.3c4.42,0,5.6,3.89,5.6,6.38,0,.5-.06.9-.08,1.15Zm7.22-1.77c0-1.56-.64-4-3.42-4-2.49,0-3.58,2.3-3.78,4Z"/><path d="M411.77,204.35c0-1.59,0-3-.11-4.23h2.16l.08,2.66H414a4.06,4.06,0,0,1,3.75-3,2.5,2.5,0,0,1,.7.08v2.32a4.06,4.06,0,0,0-.84-.08,3.46,3.46,0,0,0-3.3,3.16,6.6,6.6,0,0,0-.11,1.15v7.23h-2.44Z"/><path d="M57.89,194a27.73,27.73,0,0,1,4.67-.36c2.41,0,4.18.55,5.3,1.56a5.1,5.1,0,0,1,1.65,4,5.56,5.56,0,0,1-1.46,4,7.83,7.83,0,0,1-5.77,2.07,8.45,8.45,0,0,1-2-.16v7.56H57.89Zm2.43,9.1a8.29,8.29,0,0,0,2,.19c2.94,0,4.73-1.42,4.73-4s-1.76-3.69-4.45-3.69a10.51,10.51,0,0,0-2.3.19Z"/><path d="M72.56,192.8H75v19.88H72.56Z"/><path d="M86.67,212.68,86.48,211h-.09a5,5,0,0,1-4.14,2,3.87,3.87,0,0,1-4.15-3.9c0-3.27,2.92-5.07,8.15-5v-.28a2.79,2.79,0,0,0-3.08-3.13,6.75,6.75,0,0,0-3.53,1L79.08,200a8.42,8.42,0,0,1,4.46-1.2c4.14,0,5.15,2.83,5.15,5.54v5.07a18.94,18.94,0,0,0,.22,3.25Zm-.36-6.92c-2.69-.06-5.74.42-5.74,3.05a2.18,2.18,0,0,0,2.32,2.36,3.38,3.38,0,0,0,3.28-2.27,2.74,2.74,0,0,0,.14-.79Z"/><path d="M92.33,210.16a6.51,6.51,0,0,0,3.25,1c1.79,0,2.63-.9,2.63-2s-.7-1.82-2.52-2.49c-2.44-.87-3.59-2.21-3.59-3.84,0-2.18,1.77-4,4.68-4a6.72,6.72,0,0,1,3.33.84l-.61,1.79a5.3,5.3,0,0,0-2.78-.78c-1.45,0-2.26.83-2.26,1.84s.81,1.63,2.57,2.3c2.35.89,3.56,2.07,3.56,4.09,0,2.38-1.85,4.06-5.07,4.06a7.74,7.74,0,0,1-3.81-.93Z"/><path d="M106.72,195.23v3.9h3.53V201h-3.53v7.31c0,1.68.48,2.63,1.85,2.63a5.27,5.27,0,0,0,1.43-.17l.11,1.85a6,6,0,0,1-2.19.34,3.44,3.44,0,0,1-2.66-1,5,5,0,0,1-1-3.53V201h-2.1v-1.87h2.1v-3.25Z"/><path d="M115.76,195.32a1.45,1.45,0,0,1-1.56,1.51,1.47,1.47,0,0,1-1.49-1.51,1.5,1.5,0,0,1,1.54-1.54A1.46,1.46,0,0,1,115.76,195.32ZM113,212.68V199.13h2.46v13.55Z"/><path d="M129.23,212.17a9,9,0,0,1-3.89.79c-4.09,0-6.75-2.78-6.75-6.92a6.89,6.89,0,0,1,7.28-7.2,8.33,8.33,0,0,1,3.42.7l-.56,1.91a5.67,5.67,0,0,0-2.86-.65c-3.11,0-4.79,2.3-4.79,5.13,0,3.14,2,5.07,4.71,5.07a7.1,7.1,0,0,0,3-.67Z"/><path d="M219.24,213.06a12,12,0,0,1-5,.9c-5.32,0-9.33-3.36-9.33-9.55,0-5.91,4-9.91,9.86-9.91a10,10,0,0,1,4.48.84l-.59,2a9,9,0,0,0-3.81-.78c-4.42,0-7.36,2.83-7.36,7.78,0,4.63,2.66,7.59,7.25,7.59a9.69,9.69,0,0,0,4-.78Z"/><path d="M229.52,213.68l-.2-1.71h-.08a5.07,5.07,0,0,1-4.15,2,3.87,3.87,0,0,1-4.14-3.9c0-3.27,2.91-5.07,8.15-5v-.28a2.79,2.79,0,0,0-3.08-3.13,6.72,6.72,0,0,0-3.53,1l-.56-1.63a8.38,8.38,0,0,1,4.45-1.2c4.15,0,5.15,2.83,5.15,5.54v5.07a18.88,18.88,0,0,0,.23,3.25Zm-.37-6.92c-2.68-.06-5.74.42-5.74,3.05a2.19,2.19,0,0,0,2.33,2.36A3.38,3.38,0,0,0,229,209.9a2.44,2.44,0,0,0,.14-.79Z"/><path d="M235.51,204.35c0-1.59,0-3-.11-4.22h2.15l.09,2.65h.11a4.06,4.06,0,0,1,3.75-3,2.5,2.5,0,0,1,.7.08v2.32a4.06,4.06,0,0,0-.84-.08,3.46,3.46,0,0,0-3.3,3.16,6.6,6.6,0,0,0-.11,1.15v7.23h-2.44Z"/><path d="M256.09,193.8v16.38c0,1.2,0,2.57.11,3.5H254l-.11-2.35h-.06A5,5,0,0,1,249.2,214c-3.27,0-5.79-2.78-5.79-6.89,0-4.51,2.77-7.28,6.07-7.28a4.55,4.55,0,0,1,4.09,2.07h.06V193.8Zm-2.46,11.84a4.1,4.1,0,0,0-.12-1,3.61,3.61,0,0,0-3.55-2.85c-2.55,0-4.06,2.24-4.06,5.23,0,2.75,1.34,5,4,5a3.7,3.7,0,0,0,3.61-2.94,4.08,4.08,0,0,0,.12-1.07Z"/><path d="M260.07,213.68c.05-.93.11-2.3.11-3.5V193.8h2.43v8.51h.06a5.06,5.06,0,0,1,4.62-2.49c3.36,0,5.74,2.8,5.71,6.91,0,4.85-3.05,7.26-6.07,7.26a4.84,4.84,0,0,1-4.54-2.55h-.08l-.12,2.24Zm2.54-5.43a4.34,4.34,0,0,0,.12.89,3.79,3.79,0,0,0,3.69,2.89c2.58,0,4.12-2.11,4.12-5.21,0-2.72-1.4-5-4-5a3.93,3.93,0,0,0-3.76,3,5.34,5.34,0,0,0-.14,1Z"/><path d="M288.37,206.79c0,5-3.47,7.2-6.74,7.2-3.67,0-6.5-2.69-6.5-7,0-4.53,3-7.19,6.72-7.19S288.37,202.65,288.37,206.79Zm-10.75.14c0,3,1.71,5.21,4.12,5.21s4.11-2.22,4.11-5.27c0-2.29-1.14-5.2-4.06-5.2S277.62,204.35,277.62,206.93Z"/><path d="M299,213.68l-.2-1.71h-.08a5.08,5.08,0,0,1-4.15,2,3.87,3.87,0,0,1-4.14-3.9c0-3.27,2.91-5.07,8.15-5v-.28a2.79,2.79,0,0,0-3.08-3.13,6.72,6.72,0,0,0-3.53,1L291.4,201a8.38,8.38,0,0,1,4.45-1.2c4.14,0,5.15,2.83,5.15,5.54v5.07a18.88,18.88,0,0,0,.23,3.25Zm-.37-6.92c-2.69-.06-5.74.42-5.74,3.05a2.19,2.19,0,0,0,2.33,2.36,3.38,3.38,0,0,0,3.27-2.27,2.44,2.44,0,0,0,.14-.79Z"/><path d="M305,204.35c0-1.59,0-3-.11-4.22H307l.09,2.65h.11a4.05,4.05,0,0,1,3.75-3,2.5,2.5,0,0,1,.7.08v2.32a4.06,4.06,0,0,0-.84-.08,3.45,3.45,0,0,0-3.3,3.16,6.55,6.55,0,0,0-.12,1.15v7.23H305Z"/><path d="M325.56,193.8v16.38c0,1.2,0,2.57.11,3.5h-2.21l-.11-2.35h-.06a5,5,0,0,1-4.62,2.66c-3.28,0-5.79-2.78-5.79-6.89,0-4.51,2.77-7.28,6.07-7.28a4.55,4.55,0,0,1,4.09,2.07h0V193.8Zm-2.47,11.84a4.09,4.09,0,0,0-.11-1,3.62,3.62,0,0,0-3.55-2.85c-2.55,0-4.06,2.24-4.06,5.23,0,2.75,1.34,5,4,5a3.7,3.7,0,0,0,3.61-2.94,4.09,4.09,0,0,0,.11-1.07Z"/></g></svg>